HIERARCHY
ROOT root
{
	OFFSET 0.000000 0.000000 0.000000
	CHANNELS 6 Xposition Yposition Zposition Zrotation Yrotation Xrotation
	JOINT lhip
	{
		OFFSET 0.058581 -0.082280 -0.017664
		CHANNELS 3 Zrotation Yrotation Xrotation
		JOINT lknee
		{
			OFFSET 0.043451 -0.386469 0.008037
			CHANNELS 3 Zrotation Yrotation Xrotation
			JOINT lankle
			{
				OFFSET -0.014790 -0.426874 -0.037428
				CHANNELS 3 Zrotation Yrotation Xrotation
				JOINT ltoe
				{
					OFFSET 0.041054 -0.060286 0.122042
					CHANNELS 3 Zrotation Yrotation Xrotation
					End Site
					{
						OFFSET 0.000000 0.000000 0.000000
					}
				}
			}
		}
	}
	JOINT rhip
	{
		OFFSET -0.060310 -0.090513 -0.013543
		CHANNELS 3 Zrotation Yrotation Xrotation
		JOINT rknee
		{
			OFFSET -0.043257 -0.383688 -0.004843
			CHANNELS 3 Zrotation Yrotation Xrotation
			JOINT rankle
			{
				OFFSET 0.019056 -0.420046 -0.034562
				CHANNELS 3 Zrotation Yrotation Xrotation
				JOINT rtoe
				{
					OFFSET -0.034840 -0.062106 0.130323
					CHANNELS 3 Zrotation Yrotation Xrotation
					End Site
					{
						OFFSET 0.000000 0.000000 0.000000
					}
				}
			}
		}
	}
	JOINT lowerback
	{
		OFFSET 0.004439 0.124404 -0.038385
		CHANNELS 3 Zrotation Yrotation Xrotation
		JOINT upperback
		{
			OFFSET 0.004488 0.137956 0.026820
			CHANNELS 3 Zrotation Yrotation Xrotation
			JOINT chest
			{
				OFFSET -0.002265 0.056032 0.002855
				CHANNELS 3 Zrotation Yrotation Xrotation
				JOINT lowerneck
				{
					OFFSET -0.013390 0.211636 -0.033468
					CHANNELS 3 Zrotation Yrotation Xrotation
					JOINT upperneck
					{
						OFFSET 0.010113 0.088937 0.050410
						CHANNELS 3 Zrotation Yrotation Xrotation
						End Site
						{
							OFFSET 0.000000 0.000000 0.000000
						}
					}
				}
				JOINT lclavicle
				{
					OFFSET 0.071702 0.114000 -0.018898
					CHANNELS 3 Zrotation Yrotation Xrotation
					JOINT lshoulder
					{
						OFFSET 0.122921 0.045205 -0.019046
						CHANNELS 3 Zrotation Yrotation Xrotation
						JOINT lelbow
						{
							OFFSET 0.255332 -0.015649 -0.022946
							CHANNELS 3 Zrotation Yrotation Xrotation
							JOINT lwrist
							{
								OFFSET 0.265709 0.012698 -0.007375
								CHANNELS 3 Zrotation Yrotation Xrotation
								End Site
								{
									OFFSET 0.000000 0.000000 0.000000
								}
							}
						}
					}
				}
				JOINT rclavicle
				{
					OFFSET -0.082954 0.112472 -0.023707
					CHANNELS 3 Zrotation Yrotation Xrotation
					JOINT rshoulder
					{
						OFFSET -0.113228 0.046853 -0.008472
						CHANNELS 3 Zrotation Yrotation Xrotation
						JOINT relbow
						{
							OFFSET -0.260127 -0.014369 -0.031269
							CHANNELS 3 Zrotation Yrotation Xrotation
							JOINT rwrist
							{
								OFFSET -0.269108 0.006794 -0.006027
								CHANNELS 3 Zrotation Yrotation Xrotation
								End Site
								{
									OFFSET 0.000000 0.000000 0.000000
								}
							}
						}
					}
				}
			}
		}
	}
}
MOTION
Frames: 12
Frame Time: 0.033333
-0.118529 0.275853 0.871683 111.437045 -6.401850 100.798583 0.417023 -10.703207 -56.342300 -8.763179 8.221803 54.378961 3.097059 4.609242 -14.094723 0.000000 -0.000000 0.000000 -19.841456 -16.978611 -48.655678 -1.387273 -16.762132 61.830383 2.887766 -11.387967 -16.058120 0.000000 -0.000000 0.000000 11.956337 -3.248798 50.689817 4.713371 1.859785 3.919683 6.983499 1.464023 5.973864 2.347151 -20.627955 -15.928530 2.495485 -4.952976 -32.326188 -9.276776 4.065464 -3.275757 -53.594718 11.686800 9.819502 157.375719 -66.335224 -135.244468 39.839421 8.110192 -37.755299 -8.126915 22.515254 -14.442611 7.789642 49.515593 -20.702467 -84.513527 48.834740 -106.027558 -29.498670 -4.465680 -37.929345 
-0.120041 0.280788 0.869248 109.597315 -6.873933 100.930849 -0.056586 -10.221721 -56.431199 -8.677276 8.975864 54.494416 3.237094 5.115794 -14.294060 0.000000 -0.000000 0.000000 -20.256185 -17.100127 -49.598031 -0.854902 -15.882157 61.818809 3.108118 -10.813342 -15.337364 0.000000 -0.000000 0.000000 12.325183 -4.039919 51.183795 4.492077 1.887277 3.689057 6.847470 1.263757 5.997612 2.030396 -20.888068 -16.078247 2.109862 -4.053711 -32.483237 -9.145209 4.226424 -3.237132 -53.797589 11.845120 9.396078 158.246969 -66.363458 -135.717401 39.063109 8.196778 -37.996499 -8.727097 22.005345 -14.557317 5.992844 48.702256 -22.480131 -83.020281 48.843057 -105.295529 -29.366510 -4.374678 -37.871882 
-0.120898 0.285091 0.866316 107.809809 -7.351599 101.288362 -0.258124 -9.755911 -56.784016 -8.550670 10.039123 54.631449 3.450265 5.505161 -14.586785 0.000000 -0.000000 0.000000 -20.675065 -17.129209 -50.708369 -0.276058 -15.087382 61.792240 3.352692 -10.358517 -15.190634 0.000000 -0.000000 0.000000 12.489828 -4.670371 51.543344 4.330296 1.857570 3.196185 6.700911 1.124886 5.998164 1.314909 -20.376906 -16.241768 1.421583 -3.462605 -32.217012 -9.088575 4.414854 -3.407209 -53.826770 12.174231 9.526690 158.450698 -66.385537 -136.327595 40.242094 8.226264 -37.387209 -8.855723 21.703738 -14.544086 4.030634 47.759672 -23.382957 -81.819165 48.652877 -105.336844 -30.821799 -4.507498 -37.283255 
-0.120463 0.288961 0.863173 106.088325 -7.769575 101.328201 -0.593151 -9.065441 -56.742450 -8.536843 10.858957 54.801397 3.367099 5.838888 -14.741833 0.000000 -0.000000 0.000000 -20.975861 -17.262405 -51.501346 0.131213 -14.322034 61.903397 3.617372 -9.723853 -14.734921 0.000000 -0.000000 0.000000 12.670725 -5.336032 52.004537 3.978911 1.887508 2.809475 6.585725 1.026264 6.176035 0.798414 -20.483579 -16.799978 0.830852 -2.728850 -32.281069 -9.184675 4.308468 -3.406369 -53.828511 12.137716 9.226546 158.746327 -66.486863 -136.476011 39.226243 7.827153 -37.586810 -9.114843 21.500786 -14.753722 1.770952 46.520389 -25.066430 -80.381484 49.025461 -104.962332 -30.202035 -3.582060 -38.058653 
-0.120419 0.292543 0.860615 104.503280 -8.152331 101.569420 -0.691337 -8.583802 -56.998586 -8.538360 11.870793 55.122392 3.500840 6.295001 -15.108385 0.000000 -0.000000 0.000000 -21.236807 -17.384809 -52.421544 0.638293 -13.677022 62.013163 3.765850 -9.323588 -14.442714 0.000000 -0.000000 0.000000 12.682145 -6.044412 52.476757 3.656225 1.833796 1.662289 6.473661 1.062347 6.470242 -0.002857 -20.524313 -16.936679 0.282906 -2.101768 -32.367242 -9.216242 4.177884 -3.256159 -53.923763 12.054751 8.986959 158.751718 -66.808445 -136.465117 38.494128 7.046478 -37.816897 -9.315288 21.240279 -14.567296 -0.100052 45.494079 -26.505459 -78.297055 49.007043 -103.431146 -30.438869 -3.974765 -37.138100 
-0.119909 0.295623 0.858187 103.114178 -8.542154 101.984828 -0.788385 -8.278085 -57.466346 -8.536893 12.743160 55.511803 3.756889 6.765202 -15.475644 0.000000 -0.000000 0.000000 -21.432681 -17.713081 -53.519585 1.110298 -13.176003 62.310181 4.130019 -8.962305 -14.171083 0.000000 -0.000000 0.000000 12.870611 -6.635787 52.538474 3.376429 1.785504 0.599567 6.308224 0.858166 6.724950 -0.991890 -20.541433 -17.279980 -0.379940 -1.298782 -32.242689 -9.615569 4.009793 -3.244538 -53.641383 12.016349 9.093799 158.864060 -67.015519 -136.672221 38.341186 6.815420 -37.690936 -9.352360 21.196123 -14.206065 -2.616497 44.015700 -28.021356 -76.790416 49.327691 -102.878719 -30.221316 -3.870138 -37.814153 
-0.119168 0.297950 0.856492 101.691958 -8.857243 102.119230 -0.853080 -7.903865 -57.506596 -8.597442 13.483322 55.767608 3.962083 7.294039 -15.984812 0.000000 -0.000000 0.000000 -21.711193 -17.571244 -54.243009 1.666417 -12.717714 62.469150 4.398919 -8.949456 -13.848137 0.000000 -0.000000 0.000000 12.849585 -7.040640 52.799081 3.098741 1.899174 0.282387 6.143025 0.778792 6.479928 -1.589041 -20.176697 -18.127194 -1.246198 -0.697403 -31.928042 -9.812143 3.837338 -3.438049 -53.482010 11.825079 9.409004 158.332919 -67.291495 -136.223956 37.714236 6.367775 -37.743034 -9.349494 20.893707 -14.369118 -4.722315 42.492021 -28.864716 -73.788988 49.210090 -100.398092 -28.762418 -3.418041 -36.617801 
-0.117781 0.299750 0.854901 100.523562 -9.071647 102.125662 -0.913421 -7.550820 -57.411134 -8.608205 13.990191 56.033123 3.890007 7.783980 -16.346587 0.000000 -0.000000 0.000000 -21.898483 -17.375313 -54.719666 1.940339 -12.335734 62.672934 4.662092 -8.840982 -13.711862 0.000000 -0.000000 0.000000 12.921683 -7.630197 53.100418 2.709084 1.969748 -0.136359 5.938067 0.740870 6.252557 -2.324742 -20.017132 -18.761716 -1.992856 0.078203 -31.846832 -10.033123 3.629729 -3.646249 -53.166550 11.851871 9.610830 158.278006 -67.555522 -136.357356 37.369666 5.915504 -37.491219 -9.502886 20.783885 -14.400769 -6.979165 40.654779 -29.968352 -70.826707 49.377512 -98.610154 -28.287034 -3.012021 -35.576488 
-0.116371 0.301151 0.853517 99.552238 -9.343850 102.107846 -1.048162 -7.292543 -57.239362 -8.581282 14.420936 56.124390 3.843359 8.174797 -16.521682 0.000000 -0.000000 0.000000 -22.094027 -17.209041 -55.130481 2.312482 -11.842062 62.861401 4.908499 -8.847678 -13.813794 0.000000 -0.000000 0.000000 12.976591 -8.119872 53.144953 2.419906 2.001439 -0.061260 5.716780 0.614560 5.716321 -2.798711 -19.916498 -19.571455 -2.910590 0.614861 -31.672745 -10.407208 3.531935 -3.885847 -52.737649 11.865393 9.898223 157.963669 -67.770576 -136.178128 36.784169 5.294760 -37.266167 -9.566398 20.634544 -14.452220 -9.454535 38.845355 -30.908398 -67.734838 49.479054 -96.686657 -27.797049 -2.588065 -34.902155 
-0.114446 0.302080 0.852666 98.735287 -9.580070 102.197057 -1.214134 -7.025578 -57.067247 -8.751205 14.614163 56.058734 3.838863 8.771270 -16.678045 0.000000 -0.000000 0.000000 -22.117693 -17.185791 -55.494519 2.668772 -11.344353 62.895260 5.099027 -9.018439 -13.868241 0.000000 -0.000000 0.000000 13.028743 -8.567361 53.336502 2.037416 2.154958 -1.243813 5.560396 0.533663 5.981108 -3.627887 -20.227570 -20.171147 -3.333827 1.166717 -31.449365 -10.723417 3.291556 -3.977057 -52.227484 11.827049 10.236931 157.744232 -68.053691 -136.208806 36.755214 5.052349 -37.003242 -9.632340 20.515768 -14.381843 -11.616456 36.613067 -31.605151 -64.943529 49.927194 -94.968948 -27.350007 -2.156490 -34.331750 
-0.112532 0.302529 0.852382 97.993649 -9.761985 101.860970 -1.359106 -6.601412 -56.363489 -9.048418 14.777520 55.872552 3.652974 9.180182 -16.917375 0.000000 -0.000000 0.000000 -22.169136 -17.015748 -55.421611 3.047875 -10.849069 62.946309 5.219046 -9.128965 -13.952622 0.000000 -0.000000 0.000000 12.921916 -9.048177 53.506962 1.661812 2.146178 -0.647325 5.290526 0.628896 5.333932 -3.821139 -19.772193 -21.799479 -4.139217 1.544368 -30.826658 -10.983784 3.382454 -4.743572 -51.714075 11.832623 10.641952 157.577313 -68.380820 -136.056297 36.299988 4.749197 -37.266191 -9.600556 20.255730 -14.866169 -13.885471 35.086064 -32.268499 -61.479946 49.976488 -92.397290 -26.223020 -1.774583 -33.557518 
-0.110005 0.302576 0.852780 97.370693 -9.826933 101.630291 -1.514792 -5.982353 -55.719232 -9.328235 14.772788 55.749211 3.549512 9.422117 -17.109398 0.000000 -0.000000 0.000000 -22.072230 -16.929254 -55.292790 3.233657 -10.565690 62.967411 5.300251 -8.965169 -14.077221 0.000000 -0.000000 0.000000 12.969352 -9.406873 53.663966 1.244592 2.213973 -1.249759 5.120496 0.564632 4.982250 -4.469802 -19.892920 -21.782461 -4.519839 2.086325 -30.923253 -11.394832 2.746376 -4.339574 -51.301444 11.991703 10.581394 156.807389 -68.688660 -135.359079 36.280295 4.268707 -37.102801 -9.760287 20.593687 -14.743599 -15.489927 33.083906 -32.982373 -57.483451 50.490435 -88.885885 -25.538535 -1.103723 -32.596377 
